# xmcd
#
# Track frame offsets: 
#        150
#        19060
#        34277
#        52073
#        67771
#        82986
#        110998
#        129156
#        141806
#        160106
#        174551
#        193178
#        211203
#
# Disc length: 3081 seconds
#
# Revision: 1
# Processed by: cddbd v1.5.1PL0 Copyright (c) Steve Scherf et al.
# Submitted via: ExactAudioCopy v0.95a5
#
DISCID=b30c070d
DTITLE=Johnny Winter - I'm a Bluesman
DYEAR=2004
DGENRE=Blues
TTITLE0=I'm a Bluesman
TTITLE1=Cheatin' Blues
TTITLE2=I Smell Smoke
TTITLE3=Lone Wolf
TTITLE4=So Much Love
TTITLE5=The Monkey Song
TTITLE6=Shake Down
TTITLE7=Sweet Little Baby
TTITLE8=Pack Your Bags
TTITLE9=Last Night
TTITLE10=That Wouldn't Satisfy
TTITLE11=Sugar Coated Love
TTITLE12=Let's Start All Over Again
EXTD=LABEL =Virgin Records America, Inc.\nID =724359008127\nUPC =no
EXTD=ne\nCOPYRIGHT =2004\n
EXTT0=
EXTT1=
EXTT2=
EXTT3=
EXTT4=
EXTT5=
EXTT6=
EXTT7=
EXTT8=
EXTT9=
EXTT10=
EXTT11=
EXTT12=
PLAYORDER=
